<?xml version="1.0" standalone="no"?>
<svg viewBox="0 0 200 200" xmlns="http://www.w3.org/2000/svg">
  <path fill="#8A3FFC" d="M36.6,-54.1C50.4,-48.1,66.5,-42.9,75.8,-31.9C85.1,-20.8,87.7,-3.9,82.9,10.1C78.1,24.2,66,35.4,55.5,49C45.1,62.5,36.4,78.3,23.6,83.5C10.8,88.6,-6,83.1,-22.2,77.5C-38.5,71.9,-54.2,66.2,-62.7,55.1C-71.2,43.9,-72.5,27.3,-74.8,10.8C-77.2,-5.7,-80.6,-22,-75.6,-35.2C-70.7,-48.4,-57.4,-58.5,-43.4,-64.3C-29.4,-70.2,-14.7,-71.9,-1.6,-69.3C11.4,-66.8,22.8,-60.1,36.6,-54.1Z" transform="translate(100 100)" />
</svg>
